<?xml version="1.0" encoding="UTF-8"?>
<svg width="64" height="48" viewBox="0 0 64 48" xmlns="http://www.w3.org/2000/svg">
  <rect width="64" height="48" fill="none"/>
  <!-- Wings -->
  <path d="M8,20 C12,16 20,14 24,16 L28,18 L28,30 L24,28 C20,26 12,26 8,24 Z" fill="#5b4636"/>
  <path d="M56,20 C52,16 44,14 40,16 L36,18 L36,30 L40,28 C44,26 52,26 56,24 Z" fill="#5b4636"/>
  <!-- Body -->
  <rect x="24" y="16" width="16" height="18" rx="3" fill="#6d5442"/>
  <!-- Head -->
  <rect x="34" y="12" width="12" height="10" rx="3" fill="#f4f6f8"/>
  <!-- Eye -->
  <circle cx="42" cy="16" r="2" fill="#222"/>
  <!-- Beak (hooked) -->
  <path d="M46,16 h6 c0,3 -2,4 -4,4 h-2 z" fill="#f5c04a"/>
  <!-- Tail -->
  <rect x="28" y="32" width="8" height="4" fill="#4a382c"/>
</svg>
